<?xml version="1.0" encoding="utf-8"?>
<!-- Generator: Adobe Illustrator 19.0.0, SVG Export Plug-In . SVG Version: 6.00 Build 0)  -->
<svg version="1.1" id="Ebene_1" xmlns="http://www.w3.org/2000/svg" xmlns:xlink="http://www.w3.org/1999/xlink" x="0px" y="0px"
	 viewBox="270 12 1500 538" style="enable-background:new 270 12 1500 538;" xml:space="preserve">
<style type="text/css">
	.st0{fill:#1D92FC;}
	.st1{fill:#6069E8;}
	.st2{fill:#4956CE;}
	.st3{fill:#FFFFFF;}
</style>
<g>
	<path class="st0" d="M615.1,187.9c0,8.3-6.8,15.1-15.1,15.1h-23.1c-8.3,0-15.1-6.8-15.1-15.1v-84c0-8.3,6.8-15.1,15.1-15.1H600
		c8.3,0,15.1,6.8,15.1,15.1V187.9z"/>
	<path class="st1" d="M513.6,517.3v-79.6h98l-85,85C521.8,527.5,513.6,524.1,513.6,517.3z"/>
	<polygon class="st2" points="616.8,432.8 513.6,432.8 513.6,442.4 606.8,442.4 	"/>
	<path class="st0" d="M638,197.2l-141-141c-7.9-7.9-20.8-7.9-28.7,0l-141,141c-7.9,7.9-14.4,23.5-14.4,34.6v24.8
		c74.4,55.3,166.7,88,266.5,88c24.8,0,49.2-2,72.9-5.9V231.8C652.4,220.7,645.9,205.1,638,197.2z"/>
	<path class="st1" d="M579.5,367.5c-99.9,0-192.1-32.7-266.5-88v134.2c0,11.2,9.1,20.3,20.3,20.3h298.8c11.2,0,20.3-9.1,20.3-20.3
		v-52.1C628.7,365.5,604.3,367.5,579.5,367.5z"/>
</g>
<g>
	<path class="st3" d="M768.4,252.3c-11.5,0-21.1,3.5-28.6,10.5v-46.3c0-1.8-1.5-3.3-3.3-3.3H716c-1.8,0-3.3,1.5-3.3,3.3V356
		c0,1.8,1.5,3.3,3.3,3.3h20.5c1.8,0,3.3-1.5,3.3-3.3v-52c0-7.4,2.2-13.5,6.8-18.6c4.5-5,10.1-7.4,17-7.4c6.8,0,11.9,1.9,15.7,6
		c3.8,4.1,5.7,10.3,5.7,18.4V356c0,1.8,1.5,3.3,3.3,3.3h20.5c1.8,0,3.3-1.5,3.3-3.3v-53.7c0-15.4-3.6-27.6-10.8-36.4
		C794,256.9,782.9,252.3,768.4,252.3z"/>
	<path class="st3" d="M883.8,252.5c-15.8,0-28.9,5.3-38.9,15.7c-10,10.3-15,23.4-15,38.8c0,15.6,5,28.8,14.8,39
		c9.8,10.3,23,15.5,39.1,15.5c16.2,0,29.4-5.2,39.3-15.4c10-10.3,15-23.4,15-39.1c0-15.5-5.1-28.5-15.2-38.9
		C912.8,257.8,899.7,252.5,883.8,252.5z M857,307c0-8.2,2.4-15,7.4-20.7c4.9-5.6,11.3-8.3,19.4-8.3c8,0,14.4,2.7,19.4,8.4
		c5.1,5.7,7.6,12.5,7.6,20.6c0,8.2-2.4,15-7.4,20.6c-4.9,5.5-11.3,8.2-19.6,8.2c-8.2,0-14.5-2.7-19.4-8.2
		C859.4,322,857,315.3,857,307z"/>
	<path class="st3" d="M1020.2,334.2c-0.3-0.9-1-1.6-1.9-2c-0.4-0.1-0.8-0.2-1.2-0.2c-0.6,0-1.1,0.1-1.6,0.4c-3.6,2-7.3,3-11,3
		c-5.4,0-10.9-1.6-10.9-12.9v-43.6h25.6c1.8,0,3.3-1.5,3.3-3.3v-17.7c0-1.8-1.5-3.3-3.3-3.3h-25.4v-25.2c0-0.9-0.4-1.8-1.1-2.4
		c-0.6-0.5-1.4-0.8-2.2-0.8c-0.1,0-0.2,0-0.3,0l-20.7,2.2c-1.6,0.2-2.9,1.6-2.9,3.3v23H951c-1.8,0-3.3,1.5-3.3,3.3v17.7
		c0,1.8,1.5,3.3,3.3,3.3h15.7v43.6c0,12.1,3,21.5,9,28c6,6.6,14.8,9.9,26.1,9.9c7.7,0,15.3-1.6,22.6-4.7c1.6-0.7,2.4-2.5,1.8-4.1
		L1020.2,334.2z"/>
	<path class="st3" d="M1089.7,252.3c-16.1,0-29.4,5.1-39.6,15.3c-10.1,10.2-15.3,23.4-15.3,39.2c0,16.6,5.2,30.2,15.4,40.2
		c10.3,10,24,15.1,40.9,15.1c8.3,0,16.6-1.5,24.6-4.3c8.1-3,14.9-7.5,20.1-13.3c1.1-1.4,1.1-3.4-0.2-4.6l-13.4-13
		c-0.6-0.6-1.4-0.9-2.3-0.9h-0.1c-0.9,0-1.7,0.4-2.3,1.1c-2.6,2.8-6.2,5.1-11,6.8c-5,1.7-10,2.6-15.1,2.6c-8.2,0-15-2-20.1-6
		c-4.1-3.2-6.7-7.2-8-12.2h75.8c1.8,0,3.2-1.4,3.3-3.1c0.3-4.1,0.4-7,0.4-9c0-17.3-4.9-30.8-14.6-40
		C1118.6,257,1105.6,252.3,1089.7,252.3z M1115.6,294.2H1064c1.7-5,4.4-8.8,8.3-11.7c4.9-3.6,10.9-5.4,18-5.4
		c7.7,0,13.9,1.8,18.4,5.4C1112.3,285.4,1114.6,289.2,1115.6,294.2z"/>
	<path class="st3" d="M1256.4,254.2h-22.5c-1.3,0-2.5,0.8-3,2l-14.7,35.7l-12.5,33.6l-14.3-37.6l-13.2-31.7c-0.5-1.2-1.7-2-3-2
		h-22.7c-1.1,0-2.1,0.6-2.7,1.5c-0.6,0.9-0.7,2.1-0.3,3.1l41.9,98.9c0.5,1.2,1.7,2,3,2h22.3c1.3,0,2.5-0.8,3-2l41.7-98.9
		c0.4-1,0.3-2.2-0.3-3.1C1258.5,254.8,1257.5,254.2,1256.4,254.2z"/>
	<path class="st3" d="M1372.8,254.4h-19.9c-1.8,0-3.2,1.4-3.3,3.2l-0.2,6.3c-2.6-2.7-5.7-4.9-9.2-6.7c-6.5-3.3-13.6-5-21.3-5
		c-15.4,0-28.4,4.9-38.6,14.6c-10.3,9.7-15.5,23.2-15.5,40c0,17.2,5,30.8,15,40.5s23,14.6,38.7,14.6c7.1,0,14.3-1.8,21.1-5.1
		c3.9-1.9,7.2-4.3,10-7.2l0.4,6.6c0.1,1.8,1.6,3.1,3.3,3.1h19.5c1.8,0,3.3-1.5,3.3-3.3v-98.3
		C1376.1,255.9,1374.6,254.4,1372.8,254.4z M1349.1,306.8c0,8.2-2.5,15-7.6,20.9c-4.9,5.7-11.8,8.5-21,8.5c-8.2,0-14.9-2.6-20.4-8
		c-5.5-5.4-8.2-12.4-8.2-21.4c0-8.9,2.7-15.8,8.2-21.2c5.5-5.4,12.2-8,20.4-8c9.2,0,16.1,2.7,21,8.5
		C1346.6,292,1349.1,298.8,1349.1,306.8z"/>
	<path class="st3" d="M1457.8,252.4c-11.4,0-21.6,4-30.4,12l-0.6-7.2c-0.2-1.7-1.6-3-3.3-3h-18.7c-1.8,0-3.3,1.5-3.3,3.3V356
		c0,1.8,1.5,3.3,3.3,3.3h20.5c1.8,0,3.3-1.5,3.3-3.3v-51.5c0-7.5,2.3-13.7,6.9-19c4.5-5.1,10.2-7.6,17.4-7.6
		c7.5,0,13.1,2.2,17.1,6.8c4.1,4.7,6.1,10.8,6.1,18.7V356c0,1.8,1.5,3.3,3.3,3.3h20.7c1.8,0,3.3-1.5,3.3-3.3v-52.9
		c0-15.6-4.3-28.1-12.8-37.1S1471,252.4,1457.8,252.4z"/>
	<path class="st3" d="M1601.7,327.3c-0.6-0.6-1.4-0.9-2.3-0.9s-1.7,0.4-2.3,1c-5.4,5.5-12.3,8.2-21,8.2c-8.1,0-14.7-2.5-20.1-7.5
		c-5.3-5-7.9-11.8-7.9-20.9c0-8.7,2.6-15.6,8-20.9c5.4-5.3,12-7.9,20.2-7.9c7.8,0,14.4,2.5,20.2,7.6c0.7,0.5,1.4,0.8,2.2,0.8
		c0.9,0,1.8-0.3,2.4-1l13-13.4c1.2-1.3,1.2-3.3-0.1-4.6c-10.4-10.3-23.2-15.5-37.8-15.5c-15.8,0-29.1,4.8-39.4,14.4
		c-10.4,9.7-15.7,23.3-15.7,40.5s5.3,30.9,15.8,40.5c10.4,9.5,23.6,14.4,39.3,14.4c15.4,0,28.7-5.5,39.5-16.4c0.6-0.6,1-1.5,1-2.3
		s-0.4-1.7-1-2.3L1601.7,327.3z"/>
	<path class="st3" d="M1717.6,266.2c-9.6-9.2-22.6-13.9-38.5-13.9c-16.1,0-29.4,5.1-39.6,15.3c-10.1,10.2-15.3,23.4-15.3,39.2
		c0,16.6,5.2,30.2,15.4,40.2c10.3,10,24,15.1,40.9,15.1c8.3,0,16.6-1.5,24.6-4.3c8.1-3,14.8-7.5,20.1-13.3c1.1-1.4,1.1-3.4-0.2-4.6
		l-13.4-13c-0.6-0.6-1.4-0.9-2.3-0.9h-0.1c-0.9,0-1.7,0.4-2.3,1.1c-2.6,2.8-6.2,5.1-11,6.8c-5,1.7-10,2.6-15.1,2.6
		c-8.2,0-15-2-20.1-6c-4.1-3.2-6.7-7.2-8-12.2h75.8c1.8,0,3.2-1.4,3.3-3.1c0.3-4.1,0.4-7.1,0.4-9
		C1732.2,288.9,1727.3,275.4,1717.6,266.2z M1705,294.2h-51.6c1.7-5,4.4-8.8,8.3-11.7c4.9-3.6,10.9-5.4,18-5.4
		c7.7,0,13.9,1.8,18.4,5.4C1701.7,285.4,1704,289.2,1705,294.2z"/>
</g>
</svg>
